# xmcd CD database file
#
# Track frame offsets:
#	150
#	17984
#	38065
#	55607
#	77350
#	100621
#	115642
#	136213
#	152360
#	173023
#	194168
#	213193
#	229661
#	249664
#
# Disc length: 3564 seconds
#
# Revision: 0
# Processed by: cddbd v1.5.2PL0 Copyright (c) Steve Scherf et al.
# Submitted via: CDex 1.51
#
DISCID=a40dea0e
DTITLE=Bandari - Relaxation - Dreams
DYEAR=2000
DGENRE=New Age
TTITLE0=Adiemus
TTITLE1=After The Rain
TTITLE2=Breath Of The Wind
TTITLE3=The Miracle Of Your Eyes
TTITLE4=Sunset Glow
TTITLE5=Annie's Song
TTITLE6=Dream Catcher
TTITLE7=Jupiter
TTITLE8=Whistle Of The Wind
TTITLE9=I Swear
TTITLE10=In The Air
TTITLE11=Moon Over Cairo
TTITLE12=My Song For You
TTITLE13=Carribean Blue
EXTD=YEAR: 2000
EXTT0=
EXTT1=
EXTT2=
EXTT3=
EXTT4=
EXTT5=
EXTT6=
EXTT7=
EXTT8=
EXTT9=
EXTT10=
EXTT11=
EXTT12=
EXTT13=
PLAYORDER=
